<?xml version="1.0" encoding="utf-8"?>
<!-- Generator: Adobe Illustrator 16.0.0, SVG Export Plug-In . SVG Version: 6.00 Build 0)  -->
<!DOCTYPE svg PUBLIC "-//W3C//DTD SVG 1.1//EN" "http://www.w3.org/Graphics/SVG/1.1/DTD/svg11.dtd">
<svg version="1.1" id="Capa_1" xmlns="http://www.w3.org/2000/svg" xmlns:xlink="http://www.w3.org/1999/xlink" x="0px" y="0px"
	 width="490px" height="179.383px" viewBox="0 0 490 179.383" enable-background="new 0 0 490 179.383" xml:space="preserve">
<g>
	<g>
		<g>
			<path fill="#E2E2E2" d="M26.197,22.264h42.938l34.978,56.762l34.979-56.762h42.938v146.617h-40.425V84.682l-37.387,57.389h-0.838
				l-37.178-56.97v83.78H26.197V22.264z"/>
			<path fill="#E2E2E2" d="M208.837,22.264h40.843v146.617h-40.843V22.264z"/>
			<path fill="#E2E2E2" d="M276.491,22.264h40.633v59.485l50.478-59.485h48.173L360.27,85.31l57.391,83.571h-48.803l-36.863-54.458
				l-14.87,16.549v37.909h-40.633V22.264z"/>
			<path fill="#E2E2E2" d="M430.227,22.264h40.844v146.617h-40.844V22.264z"/>
		</g>
	</g>
</g>
<g>
	<path fill="#039FED" d="M16.364,15.113h42.938l34.978,56.761l34.979-56.761h42.938v146.616h-40.424V77.53l-37.387,57.391h-0.838
		L56.368,77.95v83.78H16.364V15.113z"/>
	<path fill="#039FED" d="M199.004,15.113h40.843v146.616h-40.843V15.113z"/>
	<path fill="#039FED" d="M266.657,15.113h40.634v59.485l50.479-59.485h48.174l-55.505,63.045l57.39,83.571h-48.804l-36.862-54.455
		l-14.871,16.544v37.911h-40.634V15.113z"/>
	<path fill="#039FED" d="M420.394,15.113h40.844v146.616h-40.844V15.113z"/>
</g>
<path fill="#898989" d="M220.89,45.924c0.021,14.132,9.386,26.169,21.528,30.899l0.151,86.369l25.08-0.045l-0.023-12.943
	l10.518-0.02l-0.033-20.226l-10.518,0.018l-0.015-8.091l10.519-0.015l-0.039-20.228l-10.514,0.021l-0.048-25.369
	c11.318-5.077,19.773-16.823,19.746-30.486c-0.031-18.288-14.948-33.084-33.236-33.05C235.723,12.792,220.858,27.641,220.89,45.924z
	"/>
<path fill="#FFFFFF" d="M219.086,44.402c0.021,14.132,9.386,26.169,21.527,30.899l0.152,86.37l25.079-0.046l-0.023-12.942
	l10.517-0.02l-0.033-20.226l-10.518,0.019l-0.015-8.092l10.52-0.015l-0.039-20.227l-10.514,0.019l-0.049-25.368
	c11.319-5.077,19.774-16.823,19.747-30.486C285.406,26,270.49,11.204,252.201,11.238C233.919,11.27,219.055,26.119,219.086,44.402z"
	/>
<circle fill="#039FED" cx="251.698" cy="44.715" r="16.919"/>
</svg>
